<svg xmlns="http://www.w3.org/2000/svg" viewBox="0 0 128 128" width="48" height="48">
  <path fill="#0065A9" d="M96.7 122.9l24.6-11.9c3.2-1.6 5.2-4.8 5.2-8.4V25.4c0-3.6-2-6.8-5.2-8.4L96.7 5.1c-3.1-1.5-6.8-.9-9.3 1.5L42.2 46.2l-21.7-16.5c-2.3-1.8-5.6-1.9-8.1-.4L2.8 35.2C.9 36.4 0 38.4 0 40.5v47c0 2.1.9 4.1 2.8 5.3l9.6 5.9c2.5 1.5 5.7 1.4 8.1-.4l21.7-16.5 45.2 39.6c2.5 2.4 6.2 3 9.3 1.5z"/>
  <path fill="#007ACC" d="M96.7 122.9l24.6-11.9c3.2-1.6 5.2-4.8 5.2-8.4V25.4c0-3.6-2-6.8-5.2-8.4L96.7 5.1c-1.8-.9-3.8-1.1-5.7-.7l-43.2 59.6 43.2 59.6c1.9.4 3.9.2 5.7-.7z"/>
  <path fill="#1F9CF0" d="M91 64L42.2 21.1 21.6 36.7 64 64l-42.4 27.3 20.6 15.6L91 64z"/>
</svg>
